# xmcd CD database file
#
# Track frame offsets:
#	150
#	33463
#	65601
#	100722
#	127605
#	156536
#	172904
#	205300
#	236157
#	261936
#	284975
#
# Disc length: 4104 seconds
#
# Revision: 1
# Processed by: cddbd v1.5.1PL0 Copyright (c) Steve Scherf et al.
# Submitted via: CDex 1.51
#
DISCID=a210060b
DTITLE=Wally Schnalle - That Place
DYEAR=1999
DGENRE=Jazz
TTITLE0=The Corner
TTITLE1=Thst Place
TTITLE2=Tony
TTITLE3=You Got We Got
TTITLE4=It Could've Been
TTITLE5=I Hear You 
TTITLE6=Patio Talk
TTITLE7=It Would've Been
TTITLE8=Red And Yellow Sivad
TTITLE9=Slomo
TTITLE10=Sweet Art
EXTD=YEAR: 1999
EXTT0=
EXTT1=
EXTT2=
EXTT3=
EXTT4=
EXTT5=
EXTT6=
EXTT7=
EXTT8=
EXTT9=
EXTT10=
PLAYORDER=
